<?xml version="1.0" encoding="UTF-8" standalone="no"?>
<svg xmlns:dc="http://purl.org/dc/elements/1.1/" xmlns:cc="http://creativecommons.org/ns#" xmlns:rdf="http://www.w3.org/1999/02/22-rdf-syntax-ns#" xmlns:svg="http://www.w3.org/2000/svg" xmlns="http://www.w3.org/2000/svg" xmlns:sodipodi="http://sodipodi.sourceforge.net/DTD/sodipodi-0.dtd" xmlns:inkscape="http://www.inkscape.org/namespaces/inkscape" width="64" height="64" viewBox="0 0 16.933333 16.933333" version="1.1" id="svg8" sodipodi:docname="contentdroplets-recentchanges-icon.svg" inkscape:version="0.92.5 (2060ec1f9f, 2020-04-08)">
  <sodipodi:namedview pagecolor="#ffffff" bordercolor="#666666" borderopacity="1" objecttolerance="10" gridtolerance="10" guidetolerance="10" inkscape:pageopacity="0" inkscape:pageshadow="2" inkscape:window-width="1920" inkscape:window-height="1009" id="namedview19" showgrid="false" inkscape:zoom="10.429825" inkscape:cx="-21.422076" inkscape:cy="32.730623" inkscape:window-x="0" inkscape:window-y="0" inkscape:window-maximized="1" inkscape:current-layer="svg8" />
  <defs id="defs2">
    <marker style="overflow:visible" id="Arrow2Lstart" refX="0.0" refY="0.0" orient="auto">
      <path transform="scale(1.1) translate(1,0)" d="M 8.7185878,4.0337352 L -2.2072895,0.016013256 L 8.7185884,-4.0017078 C 6.9730900,-1.6296469 6.9831476,1.6157441 8.7185878,4.0337352 z " style="fill-rule:evenodd;stroke-width:0.625;stroke-linejoin:round;stroke:#3e5389;stroke-opacity:1;fill:white;fill-opacity:1" id="path884" />
    </marker>
    <marker style="overflow:visible;" id="Arrow1Lend" refX="0.0" refY="0.0" orient="auto">
      <path transform="scale(0.8) rotate(180) translate(12.5,0)" style="fill-rule:evenodd;stroke:none;stroke-width:1pt;stroke-opacity:1;fill:#bd1d1d;fill-opacity:1" d="M 0.0,0.0 L 5.0,-5.0 L -12.5,0.0 L 5.0,5.0 L 0.0,0.0 z " id="path869" />
    </marker>
    <marker orient="auto" refY="0.0" refX="0.0" id="marker1178" style="overflow:visible">
      <path id="path1176" d="M 0.0,0.0 L 5.0,-5.0 L -12.5,0.0 L 5.0,5.0 L 0.0,0.0 z " style="fill-rule:evenodd;stroke:black;stroke-width:1pt;stroke-opacity:1" transform="scale(0.8) translate(12.5,0)" />
    </marker>
    <marker orient="auto" refY="0.0" refX="0.0" id="Arrow1Lstart" style="overflow:visible">
      <path id="path900" d="M 0.0,0.0 L 5.0,-5.0 L -12.5,0.0 L 5.0,5.0 L 0.0,0.0 z " style="fill-rule:evenodd;stroke:black;stroke-width:1pt;stroke-opacity:1" transform="scale(0.8) translate(12.5,0)" />
    </marker>
  </defs>
  <metadata id="metadata5">
    <rdf:RDF>
      <cc:Work rdf:about="">
        <dc:format>image/svg+xml</dc:format>
        <dc:type rdf:resource="http://purl.org/dc/dcmitype/StillImage" />
        <dc:title />
      </cc:Work>
    </rdf:RDF>
  </metadata>
  <g style="fill:none;fill-opacity:1;stroke:#00897b;stroke-opacity:1" id="layer1" transform="translate(0,-280.06666)">
    <g id="g880">
      <circle style="opacity:1;fill:white;fill-opacity:1;stroke:#fdc300;stroke-width:0.79374998;stroke-linecap:round;stroke-linejoin:round;stroke-miterlimit:3.70000005;stroke-dasharray:none;stroke-dashoffset:0;stroke-opacity:1;paint-order:fill markers stroke" id="path864" d="m 2.5550098,286.42532 a 6.2177081,6.2177081 0 0 1 6.8962521,-4.06626 6.2177081,6.2177081 0 0 1 5.1860541,6.09898 6.2177081,6.2177081 0 0 1 -5.1219024,6.15296 6.2177081,6.2177081 0 0 1 -6.938455,-3.99382" />
      <path style="opacity:1;fill:#fdc300;fill-opacity:1;stroke:#fdc300;stroke-width:0.26458332;stroke-linecap:round;stroke-linejoin:round;stroke-miterlimit:3.70000005;stroke-dasharray:none;stroke-dashoffset:0;stroke-opacity:1;paint-order:fill markers stroke" d="m 2.2544927,283.91887 c 0.6971694,0.84394 0.9421029,1.04776 2.0752027,1.15566 l -1.0192185,0.60968 -1.0192179,0.60967 -0.018383,-1.1875 z" id="path1318" inkscape:connector-curvature="0" />
      <path style="fill:none;stroke:#fdc300;stroke-width:0.79374998;stroke-linecap:round;stroke-linejoin:miter;stroke-opacity:1;stroke-miterlimit:4;stroke-dasharray:none" d="m 8.4666666,284.36511 v 4.16822 l 3.0313394,2.65306" id="path1321" />
    </g>
  </g>
  <style id="style817" type="text/css">
	.st0{fill:#FFFFFF;}
	.st1{fill:none;}
	.st2{fill:#3E5389;}
</style>
  <path style="fill:none;stroke:#fdc300;stroke-width:0.79374998;stroke-linecap:round;stroke-linejoin:miter;stroke-miterlimit:4;stroke-dasharray:none;stroke-opacity:1" d="m 2.2046176,10.513442 c 0,0 1.4967093,4.490128 6.3166207,4.414024 4.8199117,-0.0761 6.0375737,-4.819912 6.0375737,-4.819912 0,0 1.217662,-4.236448 -2.866579,-7.0522909 C 7.6079921,0.23942019 3.7520629,3.8924056 3.1686,4.6534443" id="path881" inkscape:connector-curvature="0" />
</svg>
