<?xml version="1.0" encoding="UTF-8" standalone="no"?>
<!-- Created with Inkscape (http://www.inkscape.org/) -->

<svg xmlns:dc="http://purl.org/dc/elements/1.1/" xmlns:cc="http://creativecommons.org/ns#" xmlns:rdf="http://www.w3.org/1999/02/22-rdf-syntax-ns#" xmlns:svg="http://www.w3.org/2000/svg" xmlns="http://www.w3.org/2000/svg" xmlns:sodipodi="http://sodipodi.sourceforge.net/DTD/sodipodi-0.dtd" xmlns:inkscape="http://www.inkscape.org/namespaces/inkscape" width="64" height="64" viewBox="0 0 16.933333 16.933333" version="1.1" id="svg8" inkscape:version="0.92.5 (2060ec1f9f, 2020-04-08)" sodipodi:docname="contentdroplets-whatlinkshere-icon.svg">
  <defs id="defs2">
    <marker inkscape:stockid="Arrow1Lstart" orient="auto" refY="0.0" refX="0.0" id="marker1178" style="overflow:visible" inkscape:isstock="true">
      <path id="path1176" d="M 0.0,0.0 L 5.0,-5.0 L -12.5,0.0 L 5.0,5.0 L 0.0,0.0 z " style="fill-rule:evenodd;stroke:black;stroke-width:1pt;stroke-opacity:1" transform="scale(0.8) translate(12.5,0)" />
    </marker>
    <marker inkscape:stockid="Arrow1Lstart" orient="auto" refY="0.0" refX="0.0" id="Arrow1Lstart" style="overflow:visible" inkscape:isstock="true">
      <path id="path900" d="M 0.0,0.0 L 5.0,-5.0 L -12.5,0.0 L 5.0,5.0 L 0.0,0.0 z " style="fill-rule:evenodd;stroke:black;stroke-width:1pt;stroke-opacity:1" transform="scale(0.8) translate(12.5,0)" />
    </marker>
  </defs>
  <sodipodi:namedview id="base" pagecolor="#ffffff" bordercolor="#666666" borderopacity="1.0" inkscape:pageopacity="0.0" inkscape:pageshadow="2" inkscape:zoom="7.0710678" inkscape:cx="-23.038009" inkscape:cy="46.478617" inkscape:document-units="px" inkscape:current-layer="g862" showgrid="false" units="px" width="64px" inkscape:pagecheckerboard="false" inkscape:snap-text-baseline="false" showguides="true" inkscape:guide-bbox="true" inkscape:window-width="1920" inkscape:window-height="1009" inkscape:window-x="0" inkscape:window-y="0" inkscape:window-maximized="1">
    <sodipodi:guide position="8.4666665,22.749442" orientation="1,0" id="guide890" inkscape:locked="false" inkscape:label="" inkscape:color="rgb(0,0,255)" />
    <sodipodi:guide position="10.451041,8.4666665" orientation="0,1" id="guide892" inkscape:locked="false" inkscape:label="" inkscape:color="rgb(0,0,255)" />
    <sodipodi:guide position="3.5671502,6.1539247" orientation="1,0" id="guide894" inkscape:locked="false" />
    <sodipodi:guide position="10.514383,15.416106" orientation="0,1" id="guide1909" inkscape:locked="false" />
    <sodipodi:guide position="8.9989648,2.3547916" orientation="0,1" id="guide1911" inkscape:locked="false" />
    <sodipodi:guide position="0.92604166,14.47271" orientation="0,1" id="guide1915" inkscape:locked="false" />
  </sodipodi:namedview>
  <metadata id="metadata5">
    <rdf:RDF>
      <cc:Work rdf:about="">
        <dc:format>image/svg+xml</dc:format>
        <dc:type rdf:resource="http://purl.org/dc/dcmitype/StillImage" />
        <dc:title />
      </cc:Work>
    </rdf:RDF>
  </metadata>
  <g inkscape:label="Ebene 1" inkscape:groupmode="layer" id="layer1" transform="translate(0,-280.06666)">
    <g id="g861">
      <g transform="matrix(0.07911191,0,0,0.07911191,2.8855868,281.60952)" class="st2" id="g10" style="fill:#3e5389;stroke-width:3.34441876">
        <path inkscape:connector-curvature="0" d="m -103.19453,111.95082 a 11.12787,11.12787 0 1 1 22.255735,0 11.12787,11.12787 0 0 1 -22.255735,0 z m 1.09053,-66.822861 a 10.070722,10.070722 0 1 1 20.030162,0 l -3.894753,39.025437 a 6.1537121,6.1537121 0 0 1 -12.240657,0 z" id="path2" style="fill:white;fill-opacity:1;stroke-width:37.216259" />
        <circle style="opacity:1;fill:#f28c00;fill-opacity:1;stroke:none;stroke-width:3.67886019;stroke-linecap:round;stroke-linejoin:round;stroke-miterlimit:4;stroke-dasharray:none;stroke-dashoffset:74.26771545;stroke-opacity:1;paint-order:fill markers stroke" id="path863" cx="70.863083" cy="87.376541" r="78.593834" />
        <g id="g862" transform="matrix(2.4804509,0,0,2.4804509,834.53079,-319.99962)" style="stroke-width:1.34831083">
          <g id="g859">
            <path sodipodi:nodetypes="ccscccccccscccc" inkscape:connector-curvature="0" d="m -318.4735,161.53693 -4.58854,4.58854 c -3.9197,3.91837 -3.92024,10.27254 -10e-4,14.19158 3.91904,3.91903 10.27321,3.91849 14.19158,-0.001 l 6.11359,-6.11694 c 4.89537,-4.89606 3.47782,-13.16169 -2.76917,-16.14685 l -1.95983,1.95983 c -0.19896,0.19932 -0.37201,0.42293 -0.51504,0.66554 4.89825,1.40815 6.48503,7.55807 2.87954,11.16032 l -6.11025,6.1136 c -2.61361,2.61361 -6.8511,2.61361 -9.46471,0 -2.61361,-2.61361 -2.61361,-6.8511 0,-9.46471 l 2.65213,-2.64878 c -0.37419,-1.40222 -0.4283,-4.30113 -0.4283,-4.30113 z" id="path2-36" style="fill:white;fill-opacity:1;stroke:white;stroke-width:2.022466;stroke-linecap:round;stroke-miterlimit:4;stroke-dasharray:none;stroke-opacity:1" />
            <path inkscape:connector-curvature="0" d="m -312.21609,155.28287 a 10.033255,10.033255 0 0 0 2.76918,16.14685 l 2.59192,-2.59527 a 6.6888368,6.6888368 0 0 1 -2.9966,-11.19042 l 6.11026,-6.1136 a 6.6925571,6.6925571 0 1 1 9.4647,9.46471 l -2.65212,2.64878 c 0.37457,1.40465 0.51838,2.85947 0.42808,4.30426 l 4.58854,-4.58854 a 10.034105,10.034105 0 1 0 -14.19036,-14.19037 z" id="path4" style="stroke-width:2.022466;stroke:white;stroke-opacity:1;stroke-miterlimit:4;stroke-dasharray:none;fill:white;fill-opacity:1" />
          </g>
        </g>
      </g>
    </g>
  </g>
  <style id="style817" type="text/css">
	.st0{fill:#FFFFFF;}
	.st1{fill:none;}
	.st2{fill:#3E5389;}
</style>
</svg>
